<mxfile host="app.diagrams.net" modified="2023-11-02T06:10:33.854Z" agent="Mozilla/5.0 (Macintosh; Intel Mac OS X 10_15_7) AppleWebKit/605.1.15 (KHTML, like Gecko) Version/17.0 Safari/605.1.15" etag="AAlTXsjFiqqMXSbuG8Ak" version="22.0.8" type="github">
  <diagram name="第 1 页" id="mxh8bWBtYDuDe7EswOkV">
    <mxGraphModel dx="1024" dy="556" grid="1" gridSize="10" guides="1" tooltips="1" connect="1" arrows="1" fold="1" page="1" pageScale="1" pageWidth="827" pageHeight="1169" math="0" shadow="0">
      <root>
        <mxCell id="0" />
        <mxCell id="1" parent="0" />
        <mxCell id="DNyXBS3NBZ68RY32_UbK-13" value="" style="group" vertex="1" connectable="0" parent="1">
          <mxGeometry x="200" y="510" width="400" height="50" as="geometry" />
        </mxCell>
        <mxCell id="DNyXBS3NBZ68RY32_UbK-1" value="mask" style="rounded=0;whiteSpace=wrap;html=1;fillColor=#CEE5CB;" vertex="1" parent="DNyXBS3NBZ68RY32_UbK-13">
          <mxGeometry x="200" width="50" height="50" as="geometry" />
        </mxCell>
        <mxCell id="DNyXBS3NBZ68RY32_UbK-2" value="mask" style="rounded=0;whiteSpace=wrap;html=1;fillColor=#CEE5CB;" vertex="1" parent="DNyXBS3NBZ68RY32_UbK-13">
          <mxGeometry x="250" width="50" height="50" as="geometry" />
        </mxCell>
        <mxCell id="DNyXBS3NBZ68RY32_UbK-3" value="mask" style="rounded=0;whiteSpace=wrap;html=1;fillColor=#CEE5CB;" vertex="1" parent="DNyXBS3NBZ68RY32_UbK-13">
          <mxGeometry x="300" width="50" height="50" as="geometry" />
        </mxCell>
        <mxCell id="DNyXBS3NBZ68RY32_UbK-4" value="mask" style="rounded=0;whiteSpace=wrap;html=1;fillColor=#CEE5CB;" vertex="1" parent="DNyXBS3NBZ68RY32_UbK-13">
          <mxGeometry x="350" width="50" height="50" as="geometry" />
        </mxCell>
        <mxCell id="DNyXBS3NBZ68RY32_UbK-9" value="我" style="rounded=0;whiteSpace=wrap;html=1;fillColor=#CEE5CB;" vertex="1" parent="DNyXBS3NBZ68RY32_UbK-13">
          <mxGeometry width="50" height="50" as="geometry" />
        </mxCell>
        <mxCell id="DNyXBS3NBZ68RY32_UbK-10" value="想" style="rounded=0;whiteSpace=wrap;html=1;fillColor=#CEE5CB;" vertex="1" parent="DNyXBS3NBZ68RY32_UbK-13">
          <mxGeometry x="50" width="50" height="50" as="geometry" />
        </mxCell>
        <mxCell id="DNyXBS3NBZ68RY32_UbK-11" value="咨" style="rounded=0;whiteSpace=wrap;html=1;fillColor=#CEE5CB;" vertex="1" parent="DNyXBS3NBZ68RY32_UbK-13">
          <mxGeometry x="100" width="50" height="50" as="geometry" />
        </mxCell>
        <mxCell id="DNyXBS3NBZ68RY32_UbK-12" value="询" style="rounded=0;whiteSpace=wrap;html=1;fillColor=#CEE5CB;" vertex="1" parent="DNyXBS3NBZ68RY32_UbK-13">
          <mxGeometry x="150" width="50" height="50" as="geometry" />
        </mxCell>
        <mxCell id="DNyXBS3NBZ68RY32_UbK-14" value="" style="group" vertex="1" connectable="0" parent="1">
          <mxGeometry x="400" y="110" width="200" height="50" as="geometry" />
        </mxCell>
        <mxCell id="DNyXBS3NBZ68RY32_UbK-5" value="电" style="rounded=0;whiteSpace=wrap;html=1;fillColor=#F7CFD3;" vertex="1" parent="DNyXBS3NBZ68RY32_UbK-14">
          <mxGeometry width="50" height="50" as="geometry" />
        </mxCell>
        <mxCell id="DNyXBS3NBZ68RY32_UbK-6" value="表" style="rounded=0;whiteSpace=wrap;html=1;fillColor=#F7CFD3;" vertex="1" parent="DNyXBS3NBZ68RY32_UbK-14">
          <mxGeometry x="50" width="50" height="50" as="geometry" />
        </mxCell>
        <mxCell id="DNyXBS3NBZ68RY32_UbK-7" value="改" style="rounded=0;whiteSpace=wrap;html=1;fillColor=#F7CFD3;" vertex="1" parent="DNyXBS3NBZ68RY32_UbK-14">
          <mxGeometry x="100" width="50" height="50" as="geometry" />
        </mxCell>
        <mxCell id="DNyXBS3NBZ68RY32_UbK-8" value="装" style="rounded=0;whiteSpace=wrap;html=1;fillColor=#F7CFD3;" vertex="1" parent="DNyXBS3NBZ68RY32_UbK-14">
          <mxGeometry x="150" width="50" height="50" as="geometry" />
        </mxCell>
        <mxCell id="DNyXBS3NBZ68RY32_UbK-15" value="Transformer" style="rounded=0;whiteSpace=wrap;html=1;fillColor=#C2DDF8;" vertex="1" parent="1">
          <mxGeometry x="200" y="260" width="400" height="160" as="geometry" />
        </mxCell>
        <mxCell id="DNyXBS3NBZ68RY32_UbK-17" style="edgeStyle=orthogonalEdgeStyle;rounded=0;orthogonalLoop=1;jettySize=auto;html=1;exitX=0.5;exitY=0;exitDx=0;exitDy=0;entryX=0.063;entryY=1;entryDx=0;entryDy=0;entryPerimeter=0;" edge="1" parent="1" source="DNyXBS3NBZ68RY32_UbK-9" target="DNyXBS3NBZ68RY32_UbK-15">
          <mxGeometry relative="1" as="geometry" />
        </mxCell>
        <mxCell id="DNyXBS3NBZ68RY32_UbK-18" style="edgeStyle=orthogonalEdgeStyle;rounded=0;orthogonalLoop=1;jettySize=auto;html=1;exitX=0.5;exitY=0;exitDx=0;exitDy=0;entryX=0.188;entryY=1.003;entryDx=0;entryDy=0;entryPerimeter=0;" edge="1" parent="1" source="DNyXBS3NBZ68RY32_UbK-10" target="DNyXBS3NBZ68RY32_UbK-15">
          <mxGeometry relative="1" as="geometry" />
        </mxCell>
        <mxCell id="DNyXBS3NBZ68RY32_UbK-19" style="edgeStyle=orthogonalEdgeStyle;rounded=0;orthogonalLoop=1;jettySize=auto;html=1;exitX=0.5;exitY=0;exitDx=0;exitDy=0;entryX=0.313;entryY=1;entryDx=0;entryDy=0;entryPerimeter=0;" edge="1" parent="1" source="DNyXBS3NBZ68RY32_UbK-11" target="DNyXBS3NBZ68RY32_UbK-15">
          <mxGeometry relative="1" as="geometry" />
        </mxCell>
        <mxCell id="DNyXBS3NBZ68RY32_UbK-20" style="edgeStyle=orthogonalEdgeStyle;rounded=0;orthogonalLoop=1;jettySize=auto;html=1;exitX=0.5;exitY=0;exitDx=0;exitDy=0;entryX=0.438;entryY=1;entryDx=0;entryDy=0;entryPerimeter=0;" edge="1" parent="1" source="DNyXBS3NBZ68RY32_UbK-12" target="DNyXBS3NBZ68RY32_UbK-15">
          <mxGeometry relative="1" as="geometry">
            <mxPoint x="375" y="430" as="targetPoint" />
          </mxGeometry>
        </mxCell>
        <mxCell id="DNyXBS3NBZ68RY32_UbK-21" style="edgeStyle=orthogonalEdgeStyle;rounded=0;orthogonalLoop=1;jettySize=auto;html=1;exitX=0.5;exitY=0;exitDx=0;exitDy=0;entryX=0.563;entryY=1;entryDx=0;entryDy=0;entryPerimeter=0;" edge="1" parent="1" source="DNyXBS3NBZ68RY32_UbK-1" target="DNyXBS3NBZ68RY32_UbK-15">
          <mxGeometry relative="1" as="geometry">
            <mxPoint x="420" y="450" as="targetPoint" />
          </mxGeometry>
        </mxCell>
        <mxCell id="DNyXBS3NBZ68RY32_UbK-22" style="edgeStyle=orthogonalEdgeStyle;rounded=0;orthogonalLoop=1;jettySize=auto;html=1;exitX=0.5;exitY=0;exitDx=0;exitDy=0;entryX=0.688;entryY=0.998;entryDx=0;entryDy=0;entryPerimeter=0;" edge="1" parent="1" source="DNyXBS3NBZ68RY32_UbK-2" target="DNyXBS3NBZ68RY32_UbK-15">
          <mxGeometry relative="1" as="geometry">
            <mxPoint x="475" y="440" as="targetPoint" />
          </mxGeometry>
        </mxCell>
        <mxCell id="DNyXBS3NBZ68RY32_UbK-23" style="edgeStyle=orthogonalEdgeStyle;rounded=0;orthogonalLoop=1;jettySize=auto;html=1;exitX=0.5;exitY=0;exitDx=0;exitDy=0;entryX=0.811;entryY=0.998;entryDx=0;entryDy=0;entryPerimeter=0;" edge="1" parent="1" source="DNyXBS3NBZ68RY32_UbK-3" target="DNyXBS3NBZ68RY32_UbK-15">
          <mxGeometry relative="1" as="geometry" />
        </mxCell>
        <mxCell id="DNyXBS3NBZ68RY32_UbK-24" style="edgeStyle=orthogonalEdgeStyle;rounded=0;orthogonalLoop=1;jettySize=auto;html=1;exitX=0.5;exitY=0;exitDx=0;exitDy=0;entryX=0.938;entryY=1.003;entryDx=0;entryDy=0;entryPerimeter=0;" edge="1" parent="1" source="DNyXBS3NBZ68RY32_UbK-4" target="DNyXBS3NBZ68RY32_UbK-15">
          <mxGeometry relative="1" as="geometry">
            <mxPoint x="575" y="430" as="targetPoint" />
          </mxGeometry>
        </mxCell>
        <mxCell id="DNyXBS3NBZ68RY32_UbK-25" style="edgeStyle=none;rounded=0;orthogonalLoop=1;jettySize=auto;html=1;entryX=0.5;entryY=1;entryDx=0;entryDy=0;exitX=0.563;exitY=0;exitDx=0;exitDy=0;exitPerimeter=0;" edge="1" parent="1" source="DNyXBS3NBZ68RY32_UbK-15" target="DNyXBS3NBZ68RY32_UbK-5">
          <mxGeometry relative="1" as="geometry">
            <mxPoint x="450" y="210" as="sourcePoint" />
          </mxGeometry>
        </mxCell>
        <mxCell id="DNyXBS3NBZ68RY32_UbK-26" style="edgeStyle=none;rounded=0;orthogonalLoop=1;jettySize=auto;html=1;entryX=0.5;entryY=1;entryDx=0;entryDy=0;exitX=0.687;exitY=-0.004;exitDx=0;exitDy=0;exitPerimeter=0;" edge="1" parent="1" source="DNyXBS3NBZ68RY32_UbK-15" target="DNyXBS3NBZ68RY32_UbK-6">
          <mxGeometry relative="1" as="geometry">
            <mxPoint x="435" y="270" as="sourcePoint" />
            <mxPoint x="435" y="170" as="targetPoint" />
          </mxGeometry>
        </mxCell>
        <mxCell id="DNyXBS3NBZ68RY32_UbK-27" style="edgeStyle=none;rounded=0;orthogonalLoop=1;jettySize=auto;html=1;entryX=0.5;entryY=1;entryDx=0;entryDy=0;exitX=0.813;exitY=-0.002;exitDx=0;exitDy=0;exitPerimeter=0;" edge="1" parent="1" source="DNyXBS3NBZ68RY32_UbK-15" target="DNyXBS3NBZ68RY32_UbK-7">
          <mxGeometry relative="1" as="geometry">
            <mxPoint x="445" y="280" as="sourcePoint" />
            <mxPoint x="445" y="180" as="targetPoint" />
          </mxGeometry>
        </mxCell>
        <mxCell id="DNyXBS3NBZ68RY32_UbK-28" style="edgeStyle=none;rounded=0;orthogonalLoop=1;jettySize=auto;html=1;entryX=0.5;entryY=1;entryDx=0;entryDy=0;exitX=0.939;exitY=-0.002;exitDx=0;exitDy=0;exitPerimeter=0;" edge="1" parent="1" source="DNyXBS3NBZ68RY32_UbK-15" target="DNyXBS3NBZ68RY32_UbK-8">
          <mxGeometry relative="1" as="geometry">
            <mxPoint x="455" y="290" as="sourcePoint" />
            <mxPoint x="455" y="190" as="targetPoint" />
          </mxGeometry>
        </mxCell>
      </root>
    </mxGraphModel>
  </diagram>
</mxfile>
